<?xml version="1.0" encoding="UTF-8" standalone="no"?>
<svg
   xmlns:dc="http://purl.org/dc/elements/1.1/"
   xmlns:cc="http://creativecommons.org/ns#"
   xmlns:rdf="http://www.w3.org/1999/02/22-rdf-syntax-ns#"
   xmlns:svg="http://www.w3.org/2000/svg"
   xmlns="http://www.w3.org/2000/svg"
   width="600"
   height="600"
   viewBox="0 0 600 600"
   version="1.1"
   id="svg5323">
  <metadata
     id="metadata5329">
    <rdf:RDF>
      <cc:Work
         rdf:about="">
        <dc:format>image/svg+xml</dc:format>
        <dc:type
           rdf:resource="http://purl.org/dc/dcmitype/StillImage" />
        <dc:title></dc:title>
      </cc:Work>
    </rdf:RDF>
  </metadata>
  <defs
     id="defs5327" />
  <path
     style="color:#000000;font-style:normal;font-variant:normal;font-weight:400;font-stretch:normal;font-size:medium;line-height:normal;font-family:sans-serif;font-variant-ligatures:normal;font-variant-position:normal;font-variant-caps:normal;font-variant-numeric:normal;font-variant-alternates:normal;font-feature-settings:normal;text-indent:0;text-align:start;text-decoration:none;text-decoration-line:none;text-decoration-style:solid;text-decoration-color:#000000;letter-spacing:normal;word-spacing:normal;text-transform:none;writing-mode:lr-tb;direction:ltr;text-orientation:mixed;dominant-baseline:auto;baseline-shift:baseline;text-anchor:start;white-space:normal;shape-padding:0;clip-rule:nonzero;display:inline;overflow:visible;visibility:visible;opacity:1;isolation:auto;mix-blend-mode:normal;color-interpolation:sRGB;color-interpolation-filters:linearRGB;solid-color:#000000;solid-opacity:1;vector-effect:none;fill:#aa0000;fill-opacity:1;fill-rule:nonzero;stroke:none;stroke-width:9.7161026;stroke-linecap:butt;stroke-linejoin:miter;stroke-miterlimit:4;stroke-dashoffset:0;stroke-opacity:1;color-rendering:auto;image-rendering:auto;shape-rendering:auto;text-rendering:auto"
     d="m 419.76672,35.383004 c -26.38168,0 -3.20782,0.062 -35.30004,0.062 -0.009,15.26065 -0.019,46.601376 -0.0286,61.862026 C 357.9598,81.73145 331.4815,66.15587 305.00322,50.580281 c 0.0132,16.560363 0.0264,33.120739 0.0396,49.681109 89.07363,50.49843 178.14727,100.99684 267.2209,151.49526 23.96992,8.85686 39.46747,-28.54431 16.35425,-36.8715 -56.27163,-33.42857 -112.54324,-66.85716 -168.81488,-100.28574 -0.0118,-26.40513 -0.0264,-52.813021 -0.0364,-79.216406 z M 295.049,50.615648 C 197.87832,106.99447 100.88527,163.67859 3.7958242,220.19701 -9.5007438,240.77274 19.900372,262.43832 36.779617,247.42756 122.86941,198.37182 208.9592,149.31609 295.049,100.26035 Z M 409.1227,195.56346 c -22.74954,-1.15307 -2.78306,27.60307 -14.95684,39.75582 -14.05598,36.30954 -48.51301,58.39666 -68.612,90.90903 -20.54222,30.0434 -45.91996,66.02597 -34.71706,104.19051 13.15075,16.55764 19.47186,27.65581 13.4685,48.95782 -27.68572,-13.70717 -3.26607,-47.86393 -25.52336,-68.37689 -22.466,-27.29587 -57.70199,-38.45874 -84.67736,-59.93488 -11.69956,-5.92044 -21.73719,-52.55729 -29.71366,-27.35268 2.55654,50.03597 7.69877,105.75894 42.67644,144.71026 17.02708,18.82517 45.20635,24.50437 67.89724,12.46111 22.02647,-4.99603 24.77491,40.06209 39.07099,43.22676 24.09757,1.69436 6.30087,-17.76197 9.35404,-32.99016 -1.58441,-19.01382 0.53847,-33.7183 21.82464,-32.59838 47.69523,-16.25208 82.71477,-61.15319 86.98389,-111.36705 6.01585,-51.37222 -5.06298,-103.59237 -23.07546,-151.59127 z m -302.06988,28.18918 c -13.953608,9.22602 -27.9226,18.42876 -41.883268,27.64408 v 274.98235 h 40.808668 c 0.3582,-100.87548 0.7164,-201.75095 1.0746,-302.62643 z m 385.94773,0 c 0.37969,100.87545 0.74378,201.75095 1.11308,302.62643 h 40.80763 V 251.39672 c -13.97357,-9.21469 -27.94714,-18.42939 -41.92071,-27.64408 z m 57.3687,321.48129 -499.539382,0.19972 c -3.548186,9.56885 -3.396903,12.33098 -1.194975,22.56173 161.770367,-0.0539 339.499077,-0.10776 501.269457,-0.16164 1.86651,-7.47438 1.40166,-15.13271 -0.5351,-22.59981 z"
     id="path5321" />
</svg>
