<?xml version="1.0" standalone="no"?>
<!DOCTYPE svg PUBLIC "-//W3C//DTD SVG 20010904//EN"
 "http://www.w3.org/TR/2001/REC-SVG-20010904/DTD/svg10.dtd">
<svg version="1.0" xmlns="http://www.w3.org/2000/svg"
 width="1125.000000pt" height="1125.000000pt" viewBox="0 0 1125.000000 1125.000000"
 preserveAspectRatio="xMidYMid meet">
<metadata>
Created by potrace 1.11, written by Peter Selinger 2001-2013
</metadata>
<g transform="translate(0.000000,1125.000000) scale(0.100000,-0.100000)"
fill="#000000" stroke="none">
<path d="M7210 10008 c0 -319 -4 -578 -9 -578 -4 0 -20 9 -34 20 -14 11 -27
20 -30 20 -3 0 -576 334 -667 389 -8 5 -143 85 -300 177 -157 92 -317 187
-356 210 -39 24 -76 44 -83 46 -9 2 -12 -18 -12 -74 0 -43 0 -251 1 -462 l0
-384 113 -65 c235 -136 468 -267 473 -267 3 0 18 -8 32 -18 15 -11 52 -32 82
-49 30 -17 99 -55 152 -87 54 -31 100 -56 103 -56 4 0 118 -66 155 -90 8 -6
22 -13 30 -17 8 -4 125 -70 260 -147 135 -76 265 -150 290 -164 25 -14 134
-76 244 -139 109 -62 200 -113 202 -113 2 0 33 -18 69 -40 36 -22 68 -40 70
-40 3 0 22 -10 43 -23 20 -13 62 -37 92 -54 30 -17 95 -53 144 -82 49 -28 90
-51 92 -51 1 0 69 -38 150 -85 81 -47 148 -85 150 -85 1 0 42 -23 91 -51 84
-49 118 -68 216 -123 23 -13 121 -68 217 -123 197 -113 470 -267 545 -308 28
-15 55 -31 60 -35 6 -4 33 -20 60 -35 28 -15 217 -122 420 -238 479 -272 464
-264 505 -272 59 -11 113 -12 150 -3 19 5 42 10 52 13 88 21 202 143 244 262
25 73 26 186 2 252 -26 68 -93 138 -168 174 -30 15 -68 35 -85 45 -119 71
-283 168 -300 177 -11 6 -117 70 -235 141 -118 71 -226 135 -240 143 -49 27
-65 37 -90 52 -14 9 -149 90 -300 179 -151 90 -369 219 -483 287 -114 68 -222
132 -240 142 -33 19 -261 154 -287 171 -8 5 -40 24 -70 42 -30 18 -143 84
-250 148 -107 64 -288 171 -402 239 l-208 123 0 742 0 742 -330 0 -330 -1 0
-577z"/>
<path d="M5470 10264 c-30 -18 -62 -37 -70 -41 -8 -4 -63 -35 -122 -70 -59
-35 -109 -63 -113 -63 -3 0 -11 -5 -18 -11 -7 -5 -129 -78 -272 -161 -143 -83
-367 -213 -499 -289 -131 -77 -243 -139 -247 -139 -5 0 -9 -4 -9 -9 0 -5 -8
-11 -17 -14 -19 -6 -39 -18 -233 -132 -63 -37 -173 -101 -244 -142 -70 -41
-141 -82 -157 -91 -71 -42 -495 -289 -528 -308 -20 -11 -265 -155 -546 -319
-280 -164 -528 -308 -550 -320 -22 -13 -332 -194 -690 -402 -357 -209 -657
-382 -665 -386 -8 -4 -105 -60 -215 -125 -193 -114 -201 -120 -229 -172 -52
-96 -45 -239 19 -339 82 -131 235 -214 385 -210 83 2 133 17 200 62 41 27 210
127 215 127 1 0 42 23 91 52 49 28 172 98 274 156 102 57 190 108 195 112 6 4
35 21 66 38 31 17 198 112 372 211 174 99 331 189 349 199 18 9 44 25 58 33
14 9 104 60 200 114 96 54 200 113 230 131 43 25 890 508 1025 584 17 9 273
155 570 325 297 169 560 319 584 333 25 14 124 70 220 125 97 55 190 108 206
117 17 9 50 29 75 44 25 14 69 39 98 53 42 22 52 32 52 53 3 177 1 902 -1 905
-2 2 -29 -12 -59 -31z"/>
<path d="M7596 7579 c-61 -10 -95 -34 -120 -85 -21 -42 -22 -81 -11 -355 6
-152 -4 -201 -51 -272 -16 -23 -47 -84 -71 -136 -48 -107 -102 -201 -181 -316
-57 -82 -214 -282 -274 -346 -18 -20 -61 -67 -94 -105 -34 -38 -77 -85 -95
-104 -91 -96 -264 -288 -315 -350 -16 -19 -31 -37 -34 -40 -36 -35 -151 -191
-256 -350 -49 -73 -133 -199 -187 -279 -54 -80 -100 -153 -104 -161 -3 -8 -14
-26 -23 -40 -47 -70 -173 -309 -220 -418 -109 -253 -154 -450 -153 -682 0
-165 25 -328 57 -373 9 -12 47 -65 86 -117 80 -109 152 -246 177 -340 23 -86
23 -258 -1 -363 -11 -49 -22 -77 -31 -77 -7 0 -40 20 -73 45 -131 99 -187 239
-191 478 -10 538 -26 581 -336 892 -182 182 -337 290 -830 578 -220 128 -492
300 -540 340 -11 9 -49 38 -85 64 -79 59 -129 131 -245 358 -119 230 -166 295
-215 295 -42 0 -93 -93 -94 -170 0 -51 11 -250 19 -345 2 -22 6 -74 9 -115 3
-41 7 -93 10 -115 3 -22 7 -67 11 -100 25 -240 77 -553 130 -777 16 -69 84
-285 122 -388 73 -200 200 -450 295 -585 16 -22 36 -51 46 -65 24 -34 133
-170 168 -209 115 -129 328 -254 516 -302 231 -58 450 -41 681 55 104 43 151
45 224 12 90 -42 174 -149 254 -323 141 -305 195 -397 261 -445 27 -19 47 -23
108 -24 181 -4 216 60 161 290 -34 143 -45 205 -43 251 1 37 1 152 -1 225 -2
122 15 226 48 291 63 120 140 161 325 173 114 7 349 114 580 265 47 30 87 58
90 61 3 3 21 17 40 30 114 80 305 266 430 420 306 378 488 828 536 1325 3 39
8 81 9 95 27 219 22 712 -10 980 -3 25 -8 68 -11 95 -3 28 -7 61 -10 75 -2 14
-6 45 -9 70 -3 25 -10 68 -15 95 -5 28 -12 66 -15 85 -3 19 -17 91 -31 160
-14 69 -27 132 -29 142 -6 27 -95 371 -105 403 -6 17 -31 98 -56 180 -76 248
-145 435 -163 444 -9 4 -38 4 -65 0z"/>
<path d="M1985 7038 c-11 -6 -164 -107 -340 -223 -176 -116 -343 -226 -372
-244 l-51 -33 0 -2579 -1 -2579 384 0 384 0 1 722 c1 398 3 1227 6 1843 9
2296 11 3105 10 3105 0 0 -10 -6 -21 -12z"/>
<path d="M9246 6478 c8 -2343 16 -4458 17 -4750 l2 -348 383 0 382 0 0 2578 0
2579 -127 83 c-71 46 -246 162 -390 257 -144 95 -263 173 -265 173 -2 0 -3
-258 -2 -572z"/>
<path d="M969 1020 c-19 -5 -27 -20 -46 -89 -26 -97 -25 -187 2 -309 l6 -23
4699 2 4699 1 9 41 c13 56 8 269 -7 333 l-12 50 -4664 0 c-2565 -1 -4674 -3
-4686 -6z"/>
</g>
</svg>
